<svg xmlns="http://www.w3.org/2000/svg" width="1109.166" height="1109.166" viewBox="0 0 1109.166 1109.166"><g transform="translate(-64.1 -136.1)" opacity="1"><path d="M554.583,0c306.288,0,554.583,248.3,554.583,554.583s-248.3,554.583-554.583,554.583S0,860.87,0,554.583,248.3,0,554.583,0Z" transform="translate(64.1 136.1)" fill="none"/><circle cx="546.409" cy="546.409" r="546.409" transform="translate(72.274 144.274)" fill="none" stroke="#3d7275" stroke-width="2.053"/><path d="M905.646,305.507c12.632,31.952,14.614,63.657,5.945,95.609-11.641,43.346-42.355,76.785-93.132,100.315L566.06,618.589,541.786,564.84l156.789-69.6c34.182-15.109,53.749-38.888,59.2-71.088q5.945-34.182-8.174-67.62a116.372,116.372,0,0,0-33.191-45.08c-20.063-18.082-42.108-22.788-66.381-13.871L456.085,369.163c-58.208,21.549-92.389,48.8-101.554,81.986-6.192,20.558-1.486,48.052,14.614,81.986L463.516,735c17.834,38.145,37.4,59.941,58.455,65.143,31.457,6.935,81.491-7.926,148.12-43.1L961.13,603.48,980.2,650.046,581.417,869.006c-102.792,56.474-184.035,81-240.261,70.345-40.869-8.422-75.794-41.117-104.278-98.086L132.847,632.46c-29.723-59.942-34.925-109.232-15.109-147.625,28.237-52.263,104.031-99.572,221.684-140.441L700.31,218.566c53.5-18.577,100.563-14.862,141.927,10.155C871.96,248.042,892.766,273.554,905.646,305.507Z" transform="translate(61.787 104.541)" fill="#277476" stroke="#4f7175" stroke-linecap="round" stroke-linejoin="round" stroke-width="2.053" fill-rule="evenodd"/><path d="M905.646,305.507c12.632,31.952,14.614,63.657,5.945,95.609-11.641,43.346-42.355,76.785-93.132,100.315L566.06,618.589,541.786,564.84l156.789-69.6c34.182-15.109,53.749-38.888,59.2-71.088q5.945-34.182-8.174-67.62a116.372,116.372,0,0,0-33.191-45.08c-20.063-18.082-42.108-22.788-66.381-13.871L456.085,369.163c-58.208,21.549-92.389,48.8-101.554,81.986-6.192,20.558-1.486,48.052,14.614,81.986L463.516,735c17.834,38.145,37.4,59.941,58.455,65.143,31.457,6.935,81.491-7.926,148.12-43.1L961.13,603.48,980.2,650.046,581.417,869.006c-102.792,56.474-184.035,81-240.261,70.345-40.869-8.422-75.794-41.117-104.278-98.086L132.847,632.46c-29.723-59.942-34.925-109.232-15.109-147.625,28.237-52.263,104.031-99.572,221.684-140.441L700.31,218.566c53.5-18.577,100.563-14.862,141.927,10.155C871.96,248.042,892.766,273.554,905.646,305.507Z" transform="translate(61.787 104.541)" fill="none" stroke="#fff" stroke-linecap="round" stroke-linejoin="round" stroke-width="2.053" fill-rule="evenodd"/></g></svg>