<svg xmlns="http://www.w3.org/2000/svg" width="2070" height="550" viewBox="0 0 2070 550"><g transform="translate(-522 -947)"><g transform="translate(522 947)" fill="none"><path d="M380.48,271H30.52A30.44,30.44,0,0,1,0,240.55V0H411V240.55A30.478,30.478,0,0,1,380.48,271Z" stroke="none"/><path d="M 380.4804077148438 269.9999084472656 C 384.4662170410156 269.9999084472656 388.3322448730469 269.2213134765625 391.9711608886719 267.6857299804688 C 395.4862976074219 266.2024230957031 398.6433715820312 264.0787353515625 401.3547973632812 261.3735961914062 C 404.0660095214844 258.668701171875 406.1945190429688 255.5191650390625 407.68115234375 252.0124816894531 C 409.2200622558594 248.3825836181641 410.0003051757812 244.5261688232422 410.0003051757812 240.5502166748047 L 410.0003051757812 1.000006914138794 L 0.999994695186615 1.000006914138794 L 0.999994695186615 240.5502166748047 C 0.999994695186615 244.5262756347656 1.780257821083069 248.3826904296875 3.319047212600708 252.0124816894531 C 4.805573463439941 255.5191650390625 6.933994770050049 258.668701171875 9.645153045654297 261.3735961914062 C 12.35657405853271 264.0787353515625 15.51367855072021 266.2024230957031 19.02883720397949 267.6857299804688 C 22.66773223876953 269.2213134765625 26.53388977050781 269.9999084472656 30.51994132995605 269.9999084472656 L 380.4804077148438 269.9999084472656 M 380.4804077148438 270.9999084472656 L 30.51994132995605 270.9999084472656 C 26.39967918395996 270.9999084472656 22.40267944335938 270.1948547363281 18.64004707336426 268.6070556640625 C 15.0057315826416 267.073486328125 11.74178409576416 264.8779602050781 8.938889503479004 262.08154296875 C 6.13604736328125 259.28515625 3.935468435287476 256.0287475585938 2.39836311340332 252.4028015136719 C 0.8068894147872925 248.6488037109375 -5.306846105668228e-06 244.6610107421875 -5.306846105668228e-06 240.5502166748047 L -5.306846105668228e-06 6.855211722722743e-06 L 411.0003051757812 6.855211722722743e-06 L 411.0003051757812 240.5502166748047 C 411.0003051757812 244.6609497070312 410.193359375 248.6487426757812 408.6018371582031 252.4028015136719 C 407.0646362304688 256.02880859375 404.8639526367188 259.2852172851562 402.06103515625 262.08154296875 C 399.2581481933594 264.8779602050781 395.9942016601562 267.073486328125 392.3599548339844 268.6070556640625 C 388.5973205566406 270.1948547363281 384.6004638671875 270.9999084472656 380.4804077148438 270.9999084472656 Z" stroke="none" fill="#318486"/></g><g transform="translate(938 969)" fill="none" stroke="#318486" stroke-width="1"><rect width="409" height="480" rx="30" stroke="none"/><rect x="0.5" y="0.5" width="408" height="479" rx="29.5" fill="none"/></g><g transform="translate(940.594 947)" fill="none"><path d="M376.489,17.274H27a29.887,29.887,0,0,1-16.3-4.81A30.062,30.062,0,0,1-.179,0H403.664a30.061,30.061,0,0,1-10.876,12.464A29.888,29.888,0,0,1,376.489,17.274Z" stroke="none"/><path d="M 376.4889526367188 16.27370071411133 C 382.1055603027344 16.27370071411133 387.5536499023438 14.66620063781738 392.2442932128906 11.625 C 396.3671569824219 8.951854705810547 399.729248046875 5.300150394439697 402.042236328125 1.000000357627869 L 1.443062305450439 1.000000357627869 C 3.756104230880737 5.300230503082275 7.118081569671631 8.951990127563477 11.24079513549805 11.625 C 15.93129539489746 14.66620063781738 21.37919616699219 16.27370071411133 26.9954948425293 16.27370071411133 L 376.4889526367188 16.27370071411133 M 376.4889526367188 17.27370071411133 L 26.9954948425293 17.27370071411133 C 21.18569564819336 17.27370071411133 15.54964542388916 15.61054992675781 10.69674491882324 12.46405029296875 C 5.969095230102539 9.398799896240234 2.208345174789429 5.088800430297852 -0.1789547353982925 3.570556543763814e-07 L 403.6642456054688 3.570556543763814e-07 C 401.2765502929688 5.089700222015381 397.515380859375 9.399200439453125 392.7882995605469 12.46405029296875 C 387.935302734375 15.61054992675781 382.2990417480469 17.27370071411133 376.4889526367188 17.27370071411133 Z" stroke="none" fill="#318486"/></g><g transform="translate(1353 947)" fill="none"><path d="M379,165H30A29.976,29.976,0,0,1,0,135V0H409V135a29.975,29.975,0,0,1-30,30Z" stroke="none"/><path d="M 378.9990234375 163.9996948242188 C 382.9144897460938 163.9996948242188 386.7122802734375 163.2330627441406 390.2869262695312 161.7211151123047 C 393.7401123046875 160.2605285644531 396.8416137695312 158.1693267822266 399.505126953125 155.5056304931641 C 402.1686401367188 152.8421173095703 404.259765625 149.7405853271484 405.7202758789062 146.2872161865234 C 407.2321166992188 142.7124328613281 407.9987182617188 138.9145812988281 407.9987182617188 134.9991149902344 L 407.9987182617188 1.00000536441803 L 0.9991271495819092 1.00000536441803 L 0.9991271495819092 134.9991149902344 C 0.9991271495819092 138.9147491455078 1.765758752822876 142.7125854492188 3.277706146240234 146.2872161865234 C 4.738285064697266 149.7404327392578 6.829442977905273 152.8420104980469 9.493021965026855 155.5056304931641 C 12.15665340423584 158.1693725585938 15.25812721252441 160.2605895996094 18.71117973327637 161.7211151123047 C 22.28591728210449 163.2330627441406 26.0836009979248 163.9996948242188 29.99881172180176 163.9996948242188 L 378.9990234375 163.9996948242188 M 378.9990234375 164.9996948242188 L 29.99881172180176 164.9996948242188 C 25.94902229309082 164.9996948242188 22.02028465270996 164.2064819335938 18.32165336608887 162.6421051025391 C 14.74939060211182 161.1311645507812 11.54107475280762 158.9680023193359 8.785916328430176 156.2127380371094 C 6.030811309814453 153.4575805664062 3.867706060409546 150.2492218017578 2.356706142425537 146.6767425537109 C 0.7923376560211182 142.9782104492188 -0.0008728476823307574 139.0492706298828 -0.0008728476823307574 134.9991149902344 L -0.0008728476823307574 5.306846105668228e-06 L 408.9987182617188 5.306846105668228e-06 L 408.9987182617188 134.9991149902344 C 408.9987182617188 139.0491638183594 408.2055358886719 142.9780578613281 406.6412963867188 146.6767425537109 C 405.1303405761719 150.2493286132812 402.96728515625 153.4576873779297 400.2122192382812 156.2127380371094 C 397.4571838378906 158.9679565429688 394.2488708496094 161.131103515625 390.6764831542969 162.6421051025391 C 386.9779052734375 164.2064819335938 383.049072265625 164.9996948242188 378.9990234375 164.9996948242188 Z" stroke="none" fill="#318486"/></g><g transform="translate(1768 1017)" fill="none" stroke="#318486" stroke-width="1"><rect width="409" height="480" rx="30" stroke="none"/><rect x="0.5" y="0.5" width="408" height="479" rx="29.5" fill="none"/></g><g transform="translate(1768 947)" fill="none"><path d="M379,65H30A29.974,29.974,0,0,1,0,35V0H409V35a29.975,29.975,0,0,1-30,30Z" stroke="none"/><path d="M 379.0008850097656 63.99979400634766 C 382.9163513183594 63.99979400634766 386.7142028808594 63.23321533203125 390.2890014648438 61.72137451171875 C 393.7422485351562 60.26079559326172 396.8437805175781 58.16974258422852 399.5074157714844 55.50621795654297 C 402.171142578125 52.84258651733398 404.2622985839844 49.74111175537109 405.7228393554688 46.28800582885742 C 407.2347717285156 42.71353149414062 408.0014038085938 38.91569137573242 408.0014038085938 35.0001106262207 L 408.0014038085938 1.000006079673767 L 1.000881195068359 1.000006079673767 L 1.000881195068359 35.0001106262207 C 1.000881195068359 38.91558456420898 1.767460227012634 42.71342849731445 3.279355049133301 46.28805923461914 C 4.739933967590332 49.74137496948242 6.830986499786377 52.84279632568359 9.494512557983398 55.50621795654297 C 12.15793418884277 58.16974258422852 15.25935459136963 60.26079559326172 18.71261787414551 61.72137451171875 C 22.28735542297363 63.23321533203125 26.08519744873047 63.99979400634766 30.00061798095703 63.99979400634766 L 379.0008850097656 63.99979400634766 M 379.0008850097656 64.99979400634766 L 30.00061798095703 64.99979400634766 C 25.95056533813477 64.99979400634766 22.0217227935791 64.20663452148438 18.32309150695801 62.64237594604492 C 14.75067043304443 61.13142776489258 11.54235458374023 58.96837615966797 8.787407875061035 56.21332168579102 C 6.032354831695557 53.4583740234375 3.869302272796631 50.25005722045898 2.358355045318604 46.67758560180664 C 0.7940391302108765 42.97900772094727 0.0008812512969598174 39.05016326904297 0.0008812512969598174 35.0001106262207 L 0.0008812512969598174 6.081028914195485e-06 L 409.0014038085938 6.081028914195485e-06 L 409.0014038085938 35.0001106262207 C 409.0014038085938 39.05027008056641 408.2081909179688 42.97916412353516 406.6438293457031 46.67758560180664 C 405.1328430175781 50.25005722045898 402.9696044921875 53.45832061767578 400.2145080566406 56.21332168579102 C 397.4593505859375 58.96837615966797 394.2509460449219 61.13142776489258 390.6785278320312 62.64237594604492 C 386.9798278808594 64.20663452148438 383.0509338378906 64.99979400634766 379.0008850097656 64.99979400634766 Z" stroke="none" fill="#318486"/></g><g transform="translate(2183 947)" fill="none"><path d="M379,241H30A29.975,29.975,0,0,1,0,211V0H409V211a29.975,29.975,0,0,1-30,30Z" stroke="none"/><path d="M 379.0008850097656 240.0011291503906 C 382.9161376953125 240.0011291503906 386.7138366699219 239.2344970703125 390.2883911132812 237.7225036621094 C 393.7413940429688 236.261962890625 396.8428649902344 234.1708068847656 399.5066528320312 231.507080078125 C 402.1702575683594 228.8433990478516 404.2613525390625 225.7418060302734 405.7218627929688 222.2885437011719 C 407.2339172363281 218.7140197753906 408.0005493164062 214.9161834716797 408.0005493164062 211.0005035400391 L 408.0005187988281 1.000023007392883 L 1.000875115394592 1.000023007392883 L 1.000875115394592 211.0005035400391 C 1.000875115394592 214.9159240722656 1.767454028129578 218.7137603759766 3.279348850250244 222.2886047363281 C 4.739927768707275 225.7420196533203 6.83098030090332 228.8435516357422 9.4945068359375 231.507080078125 C 12.15797996520996 234.1707000732422 15.25940132141113 236.2618713378906 18.7126636505127 237.7225036621094 C 22.2872428894043 239.2344970703125 26.08508491516113 240.0011291503906 30.00066375732422 240.0011291503906 L 379.0008850097656 240.0011291503906 M 379.0008850097656 241.0011291503906 L 30.00066375732422 241.0011291503906 C 25.95061111450195 241.0011291503906 22.02166366577148 240.2079162597656 18.32308578491211 238.6434936523438 C 14.75076961517334 237.1324920654297 11.54245376586914 234.9693908691406 8.78740119934082 232.2141876220703 C 6.0323486328125 229.4591217041016 3.869296073913574 226.2507019042969 2.358348846435547 222.6781311035156 C 0.7940329313278198 218.9793395996094 0.0008750578272156417 215.0503845214844 0.0008750578272156417 211.0005035400391 L 0.0008750578272156417 2.300061714777257e-05 L 409.0005187988281 2.300061714777257e-05 L 409.0005493164062 211.0005035400391 C 409.0005493164062 215.0507049560547 408.2073364257812 218.9795989990234 406.6428833007812 222.6781311035156 C 405.1319885253906 226.2505035400391 402.9689331054688 229.4589233398438 400.2137756347656 232.2141876220703 C 397.45849609375 234.9693908691406 394.2501831054688 237.1325531005859 390.677978515625 238.6434936523438 C 386.9794006347656 240.2079162597656 383.0505981445312 241.0011291503906 379.0008850097656 241.0011291503906 Z" stroke="none" fill="#318486"/></g></g></svg>