<svg xmlns="http://www.w3.org/2000/svg" width="2070" height="247.003" viewBox="0 0 2070 247.003"><g transform="translate(-194.001 -592)"><g transform="translate(194 592)" fill="none"><path d="M410,247H0V0H410V247Z" stroke="none"/><path d="M 408.9985961914062 246.0013885498047 L 408.9985961914062 1.000911116600037 L 1.000898480415344 1.000911116600037 L 1.000898480415344 246.0013885498047 L 408.9985961914062 246.0013885498047 M 409.9985961914062 247.0023803710938 L 409.9985961914062 247.0013885498047 L 0.0008984953165054321 247.0013885498047 L 0.0008984953165054321 0.0009111071121878922 L 409.9985961914062 0.0009111071121878922 L 409.9985961914062 247.0013885498047 L 409.9985961914062 247.0023803710938 Z" stroke="none" fill="#318486"/></g><g transform="translate(609 651)" fill="none"><path d="M410,188H0V30A29.975,29.975,0,0,1,30,0H380a29.975,29.975,0,0,1,30,30Z" stroke="none"/><path d="M 409.0003967285156 186.998291015625 L 409.0003967285156 30.00060272216797 C 409.0003967285156 26.08512878417969 408.2337646484375 22.28744506835938 406.7218017578125 18.7130241394043 C 405.26123046875 15.25986671447754 403.1701354980469 12.15844535827637 400.5065002441406 9.494813919067383 C 397.8428649902344 6.83118200302124 394.741455078125 4.740077018737793 391.2882690429688 3.279498100280762 C 387.7137451171875 1.767550587654114 383.9160766601562 1.000919103622437 380.0007019042969 1.000919103622437 L 29.99880790710449 1.000919103622437 C 26.08344078063965 1.000919103622437 22.2857551574707 1.767550587654114 18.71122932434082 3.279498100280762 C 15.25807189941406 4.740077018737793 12.15665054321289 6.83118200302124 9.493019104003906 9.494813919067383 C 6.829387664794922 12.15844535827637 4.738282203674316 15.25986671447754 3.277703285217285 18.7130241394043 C 1.765755891799927 22.28754997253418 0.99912428855896 26.08523559570312 0.99912428855896 30.00060272216797 L 0.99912428855896 186.998291015625 L 409.0003967285156 186.998291015625 M 410.0003967285156 187.998291015625 L -0.0008757195901125669 187.998291015625 L -0.0008757195901125669 30.00060272216797 C -0.0008757195901125669 25.95070838928223 0.7923347949981689 22.02191925048828 2.356703281402588 18.32344627380371 C 3.867703199386597 14.75107669830322 6.030808448791504 11.54281425476074 8.785913467407227 8.787708282470703 C 11.54101943969727 6.03260326385498 14.74928188323975 3.869498014450073 18.32165145874023 2.358498096466064 C 22.0201244354248 0.7941296100616455 25.94891357421875 0.0009190609562210739 29.99880790710449 0.0009190609562210739 L 380.0007019042969 0.0009190609562210739 C 384.0505981445312 0.0009190609562210739 387.9794006347656 0.7941296100616455 391.6778564453125 2.358498096466064 C 395.250244140625 3.869498014450073 398.45849609375 6.03260326385498 401.2135925292969 8.787708282470703 C 403.9686889648438 11.54281425476074 406.1318054199219 14.75107669830322 407.642822265625 18.32344627380371 C 409.2072143554688 22.02191925048828 410.0003967285156 25.95070838928223 410.0003967285156 30.00060272216797 L 410.0003967285156 187.998291015625 Z" stroke="none" fill="#318486"/></g><g transform="translate(609 592)" fill="none"><path d="M380,54H30A29.975,29.975,0,0,1,0,24V0H410V24a29.976,29.976,0,0,1-30,30Z" stroke="none"/><path d="M 380.000732421875 53.00087738037109 C 383.9164733886719 53.00087738037109 387.7143249511719 52.23424530029297 391.2888488769531 50.72229766845703 C 394.7420654296875 49.26171875 397.8436279296875 47.17056274414062 400.5072631835938 44.50698089599609 C 403.1710510253906 41.84329605102539 405.26220703125 38.74187850952148 406.7227478027344 35.28877258300781 C 408.2346801757812 31.7142448425293 409.0013122558594 27.91656112670898 409.0013122558594 24.00119209289551 L 409.0013122558594 1.001824140548706 L 0.9991083741188049 1.001824140548706 L 0.9991083741188049 24.00119209289551 C 0.9991083741188049 27.91656112670898 1.765739917755127 31.7142448425293 3.277740001678467 35.28882598876953 C 4.738266468048096 38.74187850952148 6.829424381256104 41.84334945678711 9.49305534362793 44.50698089599609 C 12.15663433074951 47.17061233520508 15.25805568695068 49.26171875 18.71126556396484 50.72229766845703 C 22.28563499450684 52.23424530029297 26.08331871032715 53.00087738037109 29.99879264831543 53.00087738037109 L 380.000732421875 53.00087738037109 M 380.000732421875 54.00087738037109 L 29.99879264831543 54.00087738037109 C 25.94889831542969 54.00087738037109 22.02010917663574 53.20771789550781 18.32168769836426 51.6432991027832 C 14.74926662445068 50.13229751586914 11.54100322723389 47.96919250488281 8.785950660705566 45.21408843994141 C 6.030845165252686 42.45898056030273 3.867739915847778 39.25077056884766 2.35673999786377 35.67834854125977 C 0.7923188805580139 31.97987747192383 -0.0008916400838643312 28.05108642578125 -0.0008916400838643312 24.00119209289551 L -0.0008916400838643312 0.001824086997658014 L 410.0013122558594 0.001824086997658014 L 410.0013122558594 24.00119209289551 C 410.0013122558594 28.05098152160645 409.2081604003906 31.97977066040039 407.6437377929688 35.67834854125977 C 406.1327819824219 39.25066757202148 403.9696350097656 42.45893096923828 401.2143859863281 45.21408843994141 C 398.459228515625 47.96919250488281 395.2508544921875 50.13229751586914 391.6783752441406 51.6432991027832 C 387.9798583984375 53.20771789550781 384.0509033203125 54.00087738037109 380.000732421875 54.00087738037109 Z" stroke="none" fill="#318486"/></g><g transform="translate(1024 592)" fill="none"><path d="M380,202H30A29.974,29.974,0,0,1,0,172V0H410V172a29.975,29.975,0,0,1-30,30Z" stroke="none"/><path d="M 379.998046875 200.9995880126953 C 383.9135437011719 200.9995880126953 387.7113647460938 200.2330169677734 391.2861633300781 198.7211761474609 C 394.7394104003906 197.2606506347656 397.8409423828125 195.1695404052734 400.5045776367188 192.5060119628906 C 403.1682739257812 189.8424377441406 405.2594299316406 186.7410125732422 406.7200012207031 183.2877960205078 C 408.2319641113281 179.7133331298828 408.9985961914062 175.9154815673828 408.9985961914062 171.9999084472656 L 408.9985961914062 1.000012159347534 L 1.000898480415344 1.000012159347534 L 1.000898480415344 171.9999084472656 C 1.000898480415344 175.9153747558594 1.76747739315033 179.7131652832031 3.279319524765015 183.2878570556641 C 4.739951133728027 186.7411651611328 6.831003665924072 189.8425903320312 9.494529724121094 192.5060119628906 C 12.15800380706787 195.1695861816406 15.25942516326904 197.2606506347656 18.7126350402832 198.7211761474609 C 22.28731918334961 200.2330169677734 26.08510971069336 200.9995880126953 30.00058364868164 200.9995880126953 L 379.998046875 200.9995880126953 M 379.998046875 201.9995880126953 L 30.00058364868164 201.9995880126953 C 25.95053100585938 201.9995880126953 22.02168846130371 201.2064361572266 18.3231086730957 199.6421661376953 C 14.75063514709473 198.1312255859375 11.54237174987793 195.9681701660156 8.78742504119873 193.2131195068359 C 6.032371997833252 190.4581756591797 3.869319438934326 187.2498474121094 2.358319520950317 183.6773834228516 C 0.7940564155578613 179.9788055419922 0.0008984953165054321 176.0499572753906 0.0008984953165054321 171.9999084472656 L 0.0008984953165054321 1.216205782839097e-05 L 409.9985961914062 1.216205782839097e-05 L 409.9985961914062 171.9999084472656 C 409.9985961914062 176.0500640869141 409.2053833007812 179.9789581298828 407.6409912109375 183.6773834228516 C 406.1300048828125 187.2498474121094 403.9668579101562 190.4581146240234 401.2117004394531 193.2131195068359 C 398.45654296875 195.9681701660156 395.2481689453125 198.1312255859375 391.6756896972656 199.6421661376953 C 387.9769897460938 201.2064361572266 384.048095703125 201.9995880126953 379.998046875 201.9995880126953 Z" stroke="none" fill="#318486"/></g><g transform="translate(1439 699)" fill="none"><path d="M410,140H0V30A29.975,29.975,0,0,1,30,0H380a29.975,29.975,0,0,1,30,30Z" stroke="none"/><path d="M 408.99951171875 139.0013122558594 L 408.99951171875 30.00057220458984 C 408.99951171875 26.08520317077637 408.2328796386719 22.28751945495605 406.7209167480469 18.71299362182617 C 405.2603454589844 15.2598876953125 403.1692199707031 12.15841484069824 400.505615234375 9.494782447814941 C 397.8420104980469 6.831203937530518 394.7406005859375 4.740098476409912 391.2873840332031 3.27951979637146 C 387.7128601074219 1.76751971244812 383.9151916503906 1.000888109207153 379.9998168945312 1.000888109207153 L 30.00149917602539 1.000888109207153 C 26.08613014221191 1.000888109207153 22.2884464263916 1.76751971244812 18.71391868591309 3.27951979637146 C 15.26070880889893 4.740098476409912 12.15928745269775 6.831203937530518 9.495708465576172 9.494782447814941 C 6.832077026367188 12.15841484069824 4.74097204208374 15.2598876953125 3.28039288520813 18.71304512023926 C 1.768445611000061 22.28751945495605 1.001814007759094 26.08520317077637 1.001814007759094 30.00057220458984 L 1.001814007759094 139.0013122558594 L 408.99951171875 139.0013122558594 M 409.99951171875 140.0013122558594 L 0.001814022660255432 140.0013122558594 L 0.001814022660255432 30.00057220458984 C 0.001814022660255432 25.9506778717041 0.795024573802948 22.02188873291016 2.359392881393433 18.32346725463867 C 3.870393037796021 14.7510461807251 6.033498287200928 11.5427827835083 8.788603782653809 8.787677764892578 C 11.54370880126953 6.032572269439697 14.75197219848633 3.869519710540771 18.3243408203125 2.358519792556763 C 22.02281379699707 0.7940986156463623 25.95160293579102 0.0008881064713932574 30.00149917602539 0.0008881064713932574 L 379.9998168945312 0.0008881064713932574 C 384.0497131347656 0.0008881064713932574 387.9784851074219 0.7940986156463623 391.6769714355469 2.358519792556763 C 395.2493286132812 3.869519710540771 398.4576110839844 6.032572269439697 401.2127075195312 8.787677764892578 C 403.9678039550781 11.5427827835083 406.1309204101562 14.7510461807251 407.6419067382812 18.32346725463867 C 409.206298828125 22.02188873291016 409.99951171875 25.9506778717041 409.99951171875 30.00057220458984 L 409.99951171875 140.0013122558594 Z" stroke="none" fill="#318486"/></g><g transform="translate(1439 592)" fill="none"><path d="M380,101H30A29.975,29.975,0,0,1,0,71V0H410V71a29.975,29.975,0,0,1-30,30Z" stroke="none"/><path d="M 379.9998779296875 99.99979400634766 C 383.9154663085938 99.99979400634766 387.7132873535156 99.23316192626953 391.2879943847656 97.72121429443359 C 394.7413024902344 96.26058197021484 397.8428344726562 94.16947937011719 400.5064086914062 91.50589752197266 C 403.1700744628906 88.84226989746094 405.26123046875 85.7408447265625 406.7218322753906 82.28768920898438 C 408.2337646484375 78.71327209472656 409.0003967285156 74.91558837890625 409.0003967285156 71.00011444091797 L 409.0003967285156 1.000006079673767 L 0.9981928467750549 1.000006079673767 L 0.9981928467750549 71.00011444091797 C 0.9981928467750549 74.91548156738281 1.764824390411377 78.71316528320312 3.276824474334717 82.28768920898438 C 4.737403392791748 85.7408447265625 6.828508853912354 88.84226989746094 9.49213981628418 91.50589752197266 C 12.15571880340576 94.16953277587891 15.25714015960693 96.26063537597656 18.71035003662109 97.72121429443359 C 22.28482437133789 99.23316192626953 26.0825080871582 99.99979400634766 29.99787712097168 99.99979400634766 L 379.9998779296875 99.99979400634766 M 379.9998779296875 100.9997940063477 L 29.99787712097168 100.9997940063477 C 25.94798278808594 100.9997940063477 22.01919364929199 100.2065887451172 18.32077217102051 98.64221954345703 C 14.74835109710693 97.13121795654297 11.54008769989014 94.96810913085938 8.785035133361816 92.21300506591797 C 6.029929637908936 89.45790100097656 3.866824388504028 86.24964141845703 2.35582447052002 82.67726898193359 C 0.7914033532142639 78.97879791259766 -0.001807167427614331 75.05000305175781 -0.001807167427614331 71.00011444091797 L -0.001807167427614331 6.081028914195485e-06 L 410.0003967285156 6.081028914195485e-06 L 410.0003967285156 71.00011444091797 C 410.0003967285156 75.05000305175781 409.2072448730469 78.97879791259766 407.642822265625 82.67726898193359 C 406.1318359375 86.24958801269531 403.9686584472656 89.45790100097656 401.2135009765625 92.21300506591797 C 398.4584045410156 94.96810913085938 395.2499694824219 97.13121795654297 391.6775207519531 98.64221954345703 C 387.9789428710938 100.2065887451172 384.0499877929688 100.9997940063477 379.9998779296875 100.9997940063477 Z" stroke="none" fill="#318486"/></g><g transform="translate(1854 592)" fill="none"><path d="M410,247H0V0H410V247Z" stroke="none"/><path d="M 409.0003967285156 246.0023040771484 L 409.0003967285156 1.000887513160706 L 0.9981928467750549 1.000887513160706 L 0.9981928467750549 246.0023040771484 L 409.0003967285156 246.0023040771484 M 410.0003967285156 247.0033111572266 L 410.0003967285156 247.0023040771484 L -0.001807167427614331 247.0023040771484 L -0.001807167427614331 0.000887557165697217 L 410.0003967285156 0.000887557165697217 L 410.0003967285156 247.0023040771484 L 410.0003967285156 247.0033111572266 Z" stroke="none" fill="#318486"/></g><g transform="translate(1024 800)" fill="none"><path d="M410,39H0V30A29.975,29.975,0,0,1,30,0H380a29.975,29.975,0,0,1,30,30v9Z" stroke="none"/><path d="M 409.0013427734375 38.00059509277344 L 409.0013427734375 30.0005931854248 C 409.0013427734375 26.08522605895996 408.2347106933594 22.28754043579102 406.7227172851562 18.71301460266113 C 405.2621154785156 15.25985717773438 403.1710205078125 12.1584358215332 400.5073852539062 9.494804382324219 C 397.84375 6.831172466278076 394.7422790527344 4.740014553070068 391.2891845703125 3.279488325119019 C 387.7147216796875 1.76754093170166 383.9169616699219 1.000909447669983 380.0016174316406 1.000909447669983 L 29.99970817565918 1.000909447669983 C 26.08434104919434 1.000909447669983 22.28665542602539 1.76754093170166 18.71212959289551 3.279488325119019 C 15.25897216796875 4.740067481994629 12.15755081176758 6.831172466278076 9.493919372558594 9.494804382324219 C 6.830287933349609 12.1584358215332 4.739182472229004 15.25985717773438 3.278603553771973 18.71301460266113 C 1.766656160354614 22.28754043579102 1.000024557113647 26.08522605895996 1.000024557113647 30.0005931854248 L 1.000024557113647 38.00059509277344 L 409.0013427734375 38.00059509277344 M 410.0013427734375 39.00059509277344 L 2.454898276482709e-05 39.00059509277344 L 2.454898276482709e-05 30.0005931854248 C 2.454898276482709e-05 25.95069885253906 0.7932350635528564 22.02190971374512 2.357603549957275 18.32343482971191 C 3.868603467941284 14.75106716156006 6.031708717346191 11.54280376434326 8.786813735961914 8.787698745727539 C 11.54191970825195 6.032593727111816 14.75018215179443 3.86948823928833 18.32255172729492 2.358488321304321 C 22.02102470397949 0.7941198945045471 25.94981384277344 0.0009093901026062667 29.99970817565918 0.0009093901026062667 L 380.0016174316406 0.0009093901026062667 C 384.0514831542969 0.0009093901026062667 387.9803466796875 0.7941198945045471 391.6787719726562 2.358488321304321 C 395.2511901855469 3.86948823928833 398.4593811035156 6.032593727111816 401.2145080566406 8.787698745727539 C 403.9696044921875 11.54280376434326 406.1327209472656 14.75106716156006 407.6437072753906 18.32343482971191 C 409.2081298828125 22.02190971374512 410.0013427734375 25.95069885253906 410.0013427734375 30.0005931854248 L 410.0013427734375 38.99959182739258 L 410.0013427734375 39.00059509277344 Z" stroke="none" fill="#318486"/></g></g></svg>