<svg xmlns="http://www.w3.org/2000/svg" width="361.612" height="361.612" viewBox="0 0 361.612 361.612"><path d="M361.612,339.012a22.609,22.609,0,0,1-22.6,22.6H22.6A22.609,22.609,0,0,1,0,339.012V22.6A22.609,22.609,0,0,1,22.6,0H339.012a22.609,22.609,0,0,1,22.6,22.6Z" fill="#fff"/><path d="M231.861,29.4a93.534,93.534,0,0,1-26.635,7.176,45.685,45.685,0,0,0,20.408-25.211A94.01,94.01,0,0,1,196.2,22.419,46.618,46.618,0,0,0,162.375,8c-25.607,0-46.332,20.42-46.332,45.631a46.82,46.82,0,0,0,1.175,10.419,132.483,132.483,0,0,1-95.511-47.7,45.04,45.04,0,0,0-6.283,22.962A45.514,45.514,0,0,0,36.036,77.283a46.727,46.727,0,0,1-20.974-5.718c-.011.192-.011.384-.011.588,0,22.092,15.979,40.557,37.178,44.75a48.062,48.062,0,0,1-12.216,1.6,45.988,45.988,0,0,1-8.7-.814,46.28,46.28,0,0,0,43.258,31.7,93.712,93.712,0,0,1-57.508,19.527A94.277,94.277,0,0,1,6,168.285a132.714,132.714,0,0,0,71.046,20.488c85.216,0,131.83-69.543,131.83-129.853,0-1.955-.056-3.955-.136-5.887A93.945,93.945,0,0,0,231.861,29.4Z" transform="translate(61.802 82.403)" fill="none"/></svg>